<svg viewBox="0 0 200 200" xmlns="http://www.w3.org/2000/svg">
    <clipPath id="blob">
        <path
            d="M29.8,-47.3C42.4,-44.4,59,-44,67.5,-36.5C76,-29.1,76.5,-14.5,70.9,-3.2C65.4,8.1,53.8,16.3,45.4,23.8C36.9,31.3,31.5,38.3,24.4,47.8C17.4,57.4,8.7,69.6,-3.8,76.2C-16.3,82.8,-32.6,83.7,-45.3,77.4C-57.9,71.1,-67,57.5,-74.7,43.4C-82.3,29.3,-88.6,14.6,-87.7,0.5C-86.7,-13.6,-78.6,-27.1,-69,-37.9C-59.4,-48.6,-48.3,-56.5,-36.5,-59.9C-24.8,-63.3,-12.4,-62.2,-1.9,-58.9C8.6,-55.7,17.2,-50.2,29.8,-47.3Z"
            transform="translate(100 100)" />
    </clipPath>
</svg>